<?xml version="1.0" standalone="no"?>
<!DOCTYPE svg PUBLIC "-//W3C//DTD SVG 20010904//EN"
 "http://www.w3.org/TR/2001/REC-SVG-20010904/DTD/svg10.dtd">
<svg version="1.0" xmlns="http://www.w3.org/2000/svg"
 width="260.000000pt" height="260.000000pt" viewBox="0 0 260.000000 260.000000"
 preserveAspectRatio="xMidYMid meet">
<metadata>
Created by potrace 1.14, written by Peter Selinger 2001-2017
</metadata>
<g transform="translate(0.000000,260.000000) scale(0.100000,-0.100000)"
fill="#000000" stroke="none">
<path d="M1443 1414 c-19 -19 -23 -28 -14 -37 8 -8 15 -5 27 12 11 15 23 21
35 18 23 -6 37 12 18 24 -23 14 -39 10 -66 -17z"/>
<path d="M1141 1264 c-11 -14 -18 -31 -14 -37 3 -6 12 -1 22 11 9 11 27 22 41
24 31 4 29 22 -4 26 -16 2 -30 -5 -45 -24z"/>
<path d="M1425 1244 c-13 -41 -23 -49 -58 -49 -19 0 -39 -3 -43 -7 -11 -11 47
-30 73 -23 30 7 62 70 45 87 -9 9 -13 7 -17 -8z"/>
</g>
</svg>
